<svg width="64" height="64" viewBox="0 0 64 64" fill="none" xmlns="http://www.w3.org/2000/svg">
<rect width="64" height="64" fill="#09090B"/>
<path d="M15.5386 52.6929L13.2791 50.62L17.7173 45.8281C15.431 42.3822 14.2474 37.8326 14.2474 32.61C14.2474 20.7379 20.2727 12.4194 31.8658 12.4194C37.1917 12.4194 41.334 14.1692 44.2659 17.2382L48.462 12.6886L50.6946 14.6807L46.1757 19.6611C48.3544 23.0531 49.4573 27.495 49.4573 32.61C49.4573 44.4821 43.4321 52.8006 31.8658 52.8006C26.6744 52.8006 22.6128 51.1315 19.6809 48.2241L15.5386 52.6929ZM17.5559 32.61C17.529 36.8366 18.336 40.5247 20.0306 43.3783L42.0602 19.6342C39.6663 16.9959 36.2771 15.4614 31.8658 15.4614C22.3438 15.4345 17.6366 22.5147 17.5559 32.61ZM31.8658 49.7586C41.3878 49.7855 46.1488 42.7053 46.1488 32.61C46.1488 28.518 45.3687 24.9376 43.8086 22.1378L21.8597 45.8281C24.2267 48.3318 27.5621 49.7586 31.8658 49.7586Z" fill="#FCFCFC"/>
</svg>
