<svg width="271" height="105" viewBox="0 0 271 105" fill="none" xmlns="http://www.w3.org/2000/svg">
<path d="M28.9064 94.2273L0.555664 14.111H7.33761L32.7977 86.2157L58.4246 14.111H65.2065L36.8558 94.2273H28.9064Z" fill="#FCFCFC"/>
<path d="M64.0687 95.6739L59.3991 91.3899L68.5715 81.4866C63.8463 74.3652 61.4004 64.9626 61.4004 54.1692C61.4004 29.6335 73.8525 12.4419 97.8117 12.4419C108.818 12.4419 117.379 16.0583 123.439 22.4008L132.111 12.9983L136.724 17.1153L127.385 27.4081C131.888 34.4183 134.167 43.5983 134.167 54.1692C134.167 78.7048 121.715 95.8964 97.8117 95.8964C87.0828 95.8964 78.6888 92.447 72.6295 86.4383L64.0687 95.6739ZM68.2379 54.1692C68.1823 62.9041 69.85 70.5263 73.3522 76.4237L118.88 27.3524C113.933 21.9001 106.928 18.7288 97.8117 18.7288C78.1329 18.6732 68.4047 33.3055 68.2379 54.1692ZM97.8117 89.6095C117.49 89.6652 127.33 75.0328 127.33 54.1692C127.33 45.7124 125.718 38.3128 122.494 32.5266L77.1323 81.4866C82.0242 86.6608 88.9173 89.6095 97.8117 89.6095Z" fill="#FCFCFC"/>
<path d="M139.765 94.2273V14.111H169.95C171.506 14.111 173.285 14.2223 175.342 14.5561C187.349 16.3921 194.52 25.739 194.52 36.9775C194.52 47.2146 188.183 56.2277 177.454 58.9539L195.688 94.2273H188.183L170.506 59.8441C170.283 59.8441 170.117 59.8441 169.95 59.8441H146.157V94.2273H139.765ZM146.157 53.6128H169.839C171.117 53.6128 173.063 53.5015 174.786 53.1121C183.458 51.2204 187.794 44.2103 187.794 36.9775C187.794 29.7448 183.458 22.5677 174.786 20.843C173.007 20.4535 171.117 20.3423 169.839 20.3423H146.157V53.6128Z" fill="#FCFCFC"/>
<path d="M203.258 94.2273V14.111H227.106C228.885 14.111 233.777 14.111 237.613 14.6673C255.568 17.171 264.407 33.695 264.407 54.1692C264.407 74.699 255.568 91.1674 237.613 93.671C233.833 94.2273 228.83 94.2273 227.106 94.2273H203.258ZM209.985 87.9404H227.106C230.442 87.9404 234.333 87.7735 236.835 87.3284C251.733 84.7135 257.57 71.3052 257.57 54.1692C257.57 36.9775 251.677 23.5692 236.835 21.0099C234.333 20.5648 230.219 20.3979 227.106 20.3979H209.985V87.9404Z" fill="#FCFCFC"/>
</svg>
